<svg width="168.000000" height="290.000000" viewBox="0 0 168 290" fill="none" xmlns="http://www.w3.org/2000/svg" xmlns:xlink="http://www.w3.org/1999/xlink">
	<desc>
			Created with Pixso.
	</desc>
	<defs/>
	<path d="M0 0L168 0L168 191L0 191L0 0Z" fill="#4AF6CD" fill-opacity="1.000000" fill-rule="evenodd"/>
	<path d="M168 0L168 191L0 191L0 0L168 0Z" stroke="#979797" stroke-opacity="0" stroke-width="0.000000"/>
	<path d="M68.6 146.99Q67.22 150.61 67.22 155.36Q67.22 159.8 68.75 163.37Q70.05 166.43 72.32 168.35Q72.69 168.67 73.1 168.95Q73.95 169.56 74.89 169.99Q77.04 170.96 79.63 170.96Q82.99 170.96 85.54 169.52Q86.59 168.92 87.5 168.09Q90.62 165.2 92.84 158.11Q93.74 155.17 94.48 153.64Q95.23 152.12 96.17 151.52Q97.09 150.92 98.54 150.92Q99.62 150.92 100.47 151.36Q101.23 151.75 101.81 152.49Q103.04 154.04 103.04 156.85Q103.04 157.59 102.96 158.32Q102.48 162.94 98.95 167.24L105.02 172.7Q106.69 170.95 107.91 168.93Q111.08 163.63 111.08 156.44Q111.08 151.21 109.39 147.35Q107.81 143.7 105.03 141.68Q104.87 141.56 104.69 141.44Q103.88 140.89 103 140.49Q100.6 139.39 97.69 139.39Q92.83 139.39 89.84 141.76Q89.48 142.04 89.15 142.37Q86.06 145.34 84.01 151.75Q82.94 155.11 82.22 156.68Q81.49 158.23 80.71 158.89Q80.58 159 80.44 159.09Q79.73 159.55 78.74 159.55Q77.77 159.55 77.06 159.13Q76.52 158.81 76.13 158.26Q75.19 156.97 75.19 154.51Q75.19 153.74 75.28 152.98Q75.75 149.07 78.62 145.46L72.73 140.48Q70.89 142.4 69.67 144.66Q69.06 145.78 68.6 146.99ZM103.01 103.46Q99.88 101.96 96.02 101.96L68.29 101.96L68.29 113.12L95.65 113.12Q99.37 113.12 101.18 114.44Q101.48 114.66 101.73 114.93Q102.98 116.26 102.98 118.76Q102.98 121.29 101.71 122.65Q101.48 122.9 101.21 123.11Q99.43 124.46 95.65 124.46L68.29 124.46L68.29 135.56L96.02 135.56Q101.3 135.56 104.91 133.1Q106.06 132.32 107.04 131.3Q111.08 127.03 111.08 118.76Q111.08 113.29 109.13 109.51Q107.65 106.65 105.33 104.87Q104.58 104.3 103.76 103.84Q103.39 103.64 103.01 103.46ZM94.63 85.03L94.63 81.97L110 73.81L110 61.45L92.59 71.84Q90.5 67.82 87.86 65.99Q85.21 64.16 81.25 64.16Q76.38 64.16 73.37 66.53Q72.3 67.37 71.47 68.51Q68.29 72.86 68.29 81.68L68.29 96.14L110 96.14L110 85.03L94.63 85.03ZM68.29 58.94L110 58.94L110 47.83L94.03 47.83L94.03 36.07L86.18 36.07L86.18 47.83L76.16 47.83L76.16 34.46L68.29 33.32L68.29 58.94ZM87.07 81.31L87.07 85.03L76.04 85.03L76.04 81.91Q76.04 78.74 77.3 77.15Q77.5 76.9 77.74 76.68Q78.99 75.56 81.25 75.56Q84.19 75.56 85.65 77.03Q87.07 78.46 87.07 81.31Z" fill="#FFFFFF" fill-opacity="1.000000" fill-rule="evenodd"/>
	<path d="M67.22 155.36Q67.22 150.61 68.6 146.99Q69.98 143.36 72.73 140.48L78.62 145.46Q75.19 149.78 75.19 154.51Q75.19 156.97 76.13 158.26Q77.05 159.55 78.74 159.55Q79.94 159.55 80.71 158.89Q81.49 158.23 82.22 156.68Q82.94 155.11 84.01 151.75Q86.06 145.34 89.15 142.37Q92.24 139.39 97.69 139.39Q101.66 139.39 104.69 141.44Q107.71 143.48 109.39 147.35Q111.08 151.21 111.08 156.44Q111.08 166.39 105.02 172.7L98.95 167.24Q103.04 162.26 103.04 156.85Q103.04 154.04 101.81 152.49Q100.58 150.92 98.54 150.92Q97.09 150.92 96.17 151.52Q95.23 152.12 94.48 153.64Q93.74 155.17 92.84 158.11Q90.62 165.2 87.5 168.09Q84.37 170.96 79.63 170.96Q75.91 170.96 73.1 168.95Q70.27 166.93 68.75 163.37Q67.22 159.8 67.22 155.36ZM96.02 101.96Q100.34 101.96 103.76 103.84Q107.17 105.73 109.13 109.51Q111.08 113.29 111.08 118.76Q111.08 127.03 107.04 131.3Q102.98 135.56 96.02 135.56L68.29 135.56L68.29 124.46L95.65 124.46Q99.43 124.46 101.21 123.11Q102.98 121.76 102.98 118.76Q102.98 115.75 101.18 114.44Q99.37 113.12 95.65 113.12L68.29 113.12L68.29 101.96L96.02 101.96ZM94.63 81.97L94.63 85.03L110 85.03L110 96.14L68.29 96.14L68.29 81.68Q68.29 72.86 71.47 68.51Q74.65 64.16 81.25 64.16Q85.21 64.16 87.86 65.99Q90.5 67.82 92.59 71.84L110 61.45L110 73.81L94.63 81.97ZM87.07 85.03L87.07 81.31Q87.07 75.56 81.25 75.56Q78.56 75.56 77.3 77.15Q76.04 78.74 76.04 81.91L76.04 85.03L87.07 85.03ZM110 58.94L68.29 58.94L68.29 33.32L76.16 34.46L76.16 47.83L86.18 47.83L86.18 36.07L94.03 36.07L94.03 47.83L110 47.83L110 58.94Z" stroke="#000000" stroke-opacity="1.000000" stroke-width="0.000000"/>
	<path d="M69.06 258.89Q67.22 262.99 67.22 267.92Q67.22 273.16 69.27 277.41Q69.52 277.92 69.8 278.42Q70.58 279.83 71.59 281.05Q73.89 283.85 77.33 285.7Q82.28 288.37 89.12 288.37Q101.37 288.37 106.78 282.29Q111.08 277.46 111.08 268.81Q111.08 264.86 109.88 260.79Q108.68 256.7 106.51 253.46L85.75 253.46L85.75 270.01L93.37 268.93L93.37 264.2L101.95 264.2Q102.1 264.49 102.23 264.79Q103.1 266.77 103.1 269.12Q103.1 271.76 101.83 273.46Q101.81 273.5 101.78 273.53Q100.46 275.23 97.43 276.08Q94.39 276.91 89.18 276.91Q82.03 276.91 78.56 274.37Q76.99 273.22 76.13 271.67Q75.07 269.79 75.07 267.32Q75.07 264.98 75.83 263.14Q76.58 261.31 78.19 259.03L72.5 253.58Q70.33 256.04 69.06 258.89ZM70.37 219.15Q67.22 223.65 67.22 230.36Q67.22 236.35 69.86 240.64Q70.62 241.88 71.58 242.96Q73.92 245.59 77.42 247.19Q82.34 249.43 89.12 249.43Q99.55 249.43 105.32 244.42Q106.82 243.12 107.93 241.54Q111.08 237.05 111.08 230.36Q111.08 224.35 108.44 220.03Q107.65 218.73 106.64 217.62Q104.3 215.03 100.84 213.47Q95.89 211.21 89.12 211.21Q78.74 211.21 72.98 216.25Q71.48 217.56 70.37 219.15ZM76.15 233.98Q75.19 232.47 75.19 230.36Q75.19 228.14 76.21 226.6Q77.01 225.39 78.44 224.6Q81.68 222.8 89.12 222.8Q96.62 222.8 99.86 224.6Q101.27 225.39 102.07 226.58Q103.1 228.13 103.1 230.36Q103.1 232.35 102.21 233.82Q101.4 235.16 99.83 236.06Q96.55 237.92 89.12 237.92Q81.68 237.92 78.44 236.08Q76.95 235.25 76.15 233.98Z" fill="#FFFFFF" fill-opacity="1.000000" fill-rule="evenodd"/>
	<rect x="83.000000" y="201.000000" width="20.000000" height="1.000000" transform="rotate(-90 83.000000 201.000000)" fill="#FFFFFF" fill-opacity="1.000000"/>
	<rect x="83.000000" y="201.000000" width="20.000000" height="1.000000" transform="rotate(-90 83.000000 201.000000)" stroke="#979797" stroke-opacity="0" stroke-width="0.000000"/>
</svg>
