<svg width="11.000000" height="14.000000" viewBox="0 0 11 14" fill="none" xmlns="http://www.w3.org/2000/svg" xmlns:xlink="http://www.w3.org/1999/xlink">
	<desc>
			Created with Pixso.
	</desc>
	<defs/>
	<path d="M8.78647 1.45996C7.84851 0.708618 6.65891 0.294922 5.43369 0.294922C4.20847 0.294922 3.01761 0.708618 2.08087 1.45996C0.856903 2.44092 0.13501 3.83557 0.0490723 5.38599C-0.035614 6.91577 0.537689 8.41467 1.62051 9.49756L5.15118 13.0282C5.28992 13.1656 5.53055 13.167 5.66925 13.0294L9.25055 9.495C10.3309 8.41467 10.903 6.91687 10.8195 5.38599C10.7324 3.83545 10.0117 2.4408 8.78647 1.45996L8.78647 1.45996ZM3.02747 5.68457C3.02747 7.01172 4.10657 8.09082 5.43372 8.09082C6.7608 8.09082 7.84119 7.01172 7.83994 5.68457C7.83994 4.35754 6.76083 3.27844 5.43372 3.27844C4.1066 3.27844 3.02747 4.35754 3.02747 5.68457Z" clip-rule="evenodd" fill="#FFFFFF" fill-opacity="1.000000" fill-rule="evenodd"/>
	<path d="M5.43 4.51C4.78 4.51 4.26 5.03 4.26 5.68C4.26 6.33 4.78 6.85 5.43 6.85C6.08 6.85 6.6 6.33 6.6 5.68C6.6 5.03 6.08 4.51 5.43 4.51Z" fill="#FFFFFF" fill-opacity="1.000000" fill-rule="nonzero"/>
</svg>
