<svg width="13.728500" height="16.338379" viewBox="0 0 13.7285 16.3384" fill="none" xmlns="http://www.w3.org/2000/svg" xmlns:xlink="http://www.w3.org/1999/xlink">
	<desc>
			Created with Pixso.
	</desc>
	<defs/>
	<g opacity="0.299219" style="mix-blend-mode:normal">
		<path id="Shape" d="M11.1308 1.48315C9.93703 0.526855 8.42297 0.000244141 6.86359 0.000244141C5.30421 0.000244141 3.78857 0.526855 2.59637 1.48315C1.03857 2.73145 0.119827 4.50659 0.0104675 6.47974C-0.0973511 8.42676 0.632339 10.3345 2.01047 11.7126L6.50406 16.2063C6.68062 16.3813 6.98686 16.3828 7.16342 16.2078L11.7214 11.7095C13.0964 10.3345 13.8245 8.42822 13.7183 6.47974C13.6074 4.50635 12.6902 2.73145 11.1308 1.48291L11.1308 1.48315ZM3.80113 6.85986C3.80113 8.54907 5.17453 9.92236 6.8636 9.92236C8.55264 9.92236 9.92764 8.54907 9.92609 6.85986C9.92609 5.1709 8.55269 3.79736 6.8636 3.79736C5.17456 3.79736 3.80113 5.1709 3.80113 6.85986Z" clip-rule="evenodd" fill="#FFFFFF" fill-opacity="1.000000" fill-rule="evenodd"/>
		<path id="Shape" d="M6.86 5.36C6.04 5.36 5.37 6.03 5.37 6.85C5.37 7.68 6.04 8.35 6.86 8.35C7.68 8.35 8.35 7.68 8.35 6.85C8.35 6.03 7.68 5.36 6.86 5.36Z" fill="#FFFFFF" fill-opacity="1.000000" fill-rule="nonzero"/>
	</g>
</svg>
