<svg width="24.125000" height="52.125000" viewBox="0 0 24.125 52.125" fill="none" xmlns="http://www.w3.org/2000/svg" xmlns:xlink="http://www.w3.org/1999/xlink">
	<desc>
			Created with Pixso.
	</desc>
	<defs>
		<filter id="filter_0_2964_dd" x="0.000000" y="0.000000" width="24.125000" height="52.125000" filterUnits="userSpaceOnUse" color-interpolation-filters="sRGB">
			<feFlood flood-opacity="0" result="BackgroundImageFix"/>
			<feColorMatrix in="SourceAlpha" type="matrix" values="0 0 0 0 0 0 0 0 0 0 0 0 0 0 0 0 0 0 127 0" result="hardAlpha"/>
			<feOffset dx="0" dy="4"/>
			<feGaussianBlur stdDeviation="1.33333"/>
			<feComposite in2="hardAlpha" operator="out" k2="-1" k3="1"/>
			<feColorMatrix type="matrix" values="0 0 0 0 0 0 0 0 0 0 0 0 0 0 0 0 0 0 0.25 0"/>
			<feBlend mode="normal" in2="BackgroundImageFix" result="effect_dropShadow_1"/>
			<feBlend mode="normal" in="SourceGraphic" in2="effect_dropShadow_1" result="shape"/>
		</filter>
	</defs>
	<g filter="url(#filter_0_2964_dd)">
		<mask id="mask_0_2967" fill="white">
			<path d="M11.7641 0.125L11.7636 0.125C9.54623 0.126099 4.125 7.18335 4.125 20.2637C4.125 33.4806 8.8681 42.4406 9.06946 42.8157L9.26562 43.1803L14.2621 43.1803L14.4583 42.8157C14.6596 42.4407 19.4027 33.4806 19.4027 20.2637C19.4027 7.18286 13.9818 0.126099 11.7641 0.125ZM11.0696 1.96887L11.0696 1.96875L11.0698 1.96875L11.0696 1.96887ZM11.0696 1.96887L11.0696 23.7363L12.4586 23.7363L12.4586 1.96875C14.2363 3.55554 18.0141 9.32837 18.0141 20.2639C18.0141 23.9132 17.6304 27.243 17.0835 30.151C16.2797 29.0068 14.8023 27.4496 12.1097 25.9114C5.56308 22.17 5.64264 17.0327 5.64798 16.8158L5.64624 16.8158C6.32852 8.09912 9.48978 3.38049 11.0696 1.96887ZM5.53693 21.3789C6.53003 23.2242 8.29214 25.3301 11.4203 27.1182C15.8821 29.6685 16.6323 32.191 16.6461 32.2363C16.3058 33.7225 15.9325 35.0714 15.5593 36.2589C14.9742 35.2225 13.943 33.9481 12.1218 32.8632C6.63733 29.5975 5.77112 24.8596 5.64978 23.9049C5.59076 23.082 5.55603 22.2383 5.53693 21.3789ZM12.4585 41.7919L13.4185 41.7919L13.4184 41.7915C13.6944 41.222 14.2534 40.0033 14.8889 38.2499C14.7534 37.6718 14.1042 35.6595 11.4097 34.0554C8.96014 32.5955 7.34906 30.8577 6.28482 29.2292C7.42197 35.891 9.48453 40.5037 10.1095 41.7919L11.0696 41.7919L11.0696 36.9305L12.4585 36.9305L12.4585 41.7919Z" clip-rule="evenodd" fill="" fill-opacity="1.000000" fill-rule="evenodd"/>
		</mask>
		<path d="M11.7641 0.125L11.7636 0.125C9.54623 0.126099 4.125 7.18335 4.125 20.2637C4.125 33.4806 8.8681 42.4406 9.06946 42.8157L9.26562 43.1803L14.2621 43.1803L14.4583 42.8157C14.6596 42.4407 19.4027 33.4806 19.4027 20.2637C19.4027 7.18286 13.9818 0.126099 11.7641 0.125ZM11.0696 1.96887L11.0696 1.96875L11.0698 1.96875L11.0696 1.96887ZM11.0696 1.96887L11.0696 23.7363L12.4586 23.7363L12.4586 1.96875C14.2363 3.55554 18.0141 9.32837 18.0141 20.2639C18.0141 23.9132 17.6304 27.243 17.0835 30.151C16.2797 29.0068 14.8023 27.4496 12.1097 25.9114C5.56308 22.17 5.64264 17.0327 5.64798 16.8158L5.64624 16.8158C6.32852 8.09912 9.48978 3.38049 11.0696 1.96887ZM5.53693 21.3789C6.53003 23.2242 8.29214 25.3301 11.4203 27.1182C15.8821 29.6685 16.6323 32.191 16.6461 32.2363C16.3058 33.7225 15.9325 35.0714 15.5593 36.2589C14.9742 35.2225 13.943 33.9481 12.1218 32.8632C6.63733 29.5975 5.77112 24.8596 5.64978 23.9049C5.59076 23.082 5.55603 22.2383 5.53693 21.3789ZM12.4585 41.7919L13.4185 41.7919L13.4184 41.7915C13.6944 41.222 14.2534 40.0033 14.8889 38.2499C14.7534 37.6718 14.1042 35.6595 11.4097 34.0554C8.96014 32.5955 7.34906 30.8577 6.28482 29.2292C7.42197 35.891 9.48453 40.5037 10.1095 41.7919L11.0696 41.7919L11.0696 36.9305L12.4585 36.9305L12.4585 41.7919Z" clip-rule="evenodd" fill="#FFFFFF" fill-opacity="1.000000" fill-rule="evenodd" mask="url(#mask_0_2967)"/>
		<path d="M11.7641 0.25L11.7636 0.25Q11.376 0.250244 10.8636 0.561035Q10.3197 0.890869 9.72537 1.51868Q9.09204 2.18762 8.4765 3.11755Q7.81342 4.11938 7.22546 5.34375Q5.8877 8.12952 5.12888 11.6254Q4.25 15.6743 4.25 20.2637Q4.25 24.8054 4.99258 29.2902Q5.59039 32.9005 6.6412 36.3186Q7.40234 38.7944 8.32675 40.9429Q8.8143 42.076 9.1796 42.7566L9.3757 43.121L9.26562 43.1803L9.26562 43.0553L14.2621 43.0553L14.2621 43.1803L14.152 43.121L14.3482 42.7565Q14.7128 42.0775 15.201 40.943Q16.1254 38.7944 16.8865 36.3186Q17.9373 32.9005 18.5351 29.2902Q19.2777 24.8054 19.2777 20.2637Q19.2777 15.6742 18.3989 11.6252Q17.6401 8.12927 16.3023 5.34363Q15.7144 4.11914 15.0513 3.11743Q14.4358 2.1875 13.8025 1.51855Q13.2081 0.890869 12.6642 0.561035Q12.1517 0.250244 11.764 0.25L11.7641 0.25ZM11.7642 0Q12.2216 0.000244141 12.7939 0.34729Q13.3665 0.69458 13.984 1.34668Q14.6323 2.03137 15.2598 2.97949Q15.9323 3.99548 16.5277 5.23535Q17.8781 8.04761 18.6432 11.5721Q19.5277 15.6473 19.5277 20.2637Q19.5277 24.8259 18.7818 29.3309Q18.1812 32.9579 17.1255 36.3921Q16.3604 38.8809 15.4306 41.0417Q14.9382 42.1862 14.5683 42.8749L14.3368 43.3053L9.19095 43.3053L8.95932 42.8748Q8.58893 42.1847 8.09711 41.0417Q7.16736 38.8807 6.40225 36.3921Q5.3465 32.9579 4.74594 29.3309Q4 24.826 4 20.2637Q4 15.6475 4.88455 11.5724Q5.6496 8.04773 7.00009 5.23547Q7.59549 3.99573 8.26804 2.97961Q8.89554 2.03149 9.54385 1.3468Q10.1613 0.69458 10.7339 0.34729Q11.3061 0.000244141 11.7635 0L11.7641 0L11.7642 0ZM10.9446 1.96887L10.9446 1.87927L11.0295 1.85034L11.153 2.06189L10.9446 2.24805L10.9446 1.96887ZM11.1946 1.96887L11.0696 1.96887L10.9864 1.87561L10.9865 1.87549L11.0698 1.96875L11.11 2.08704L11.1099 2.08704L11.0696 1.96875L11.1946 1.96875L11.1946 1.96887ZM11.1946 1.96887L11.1946 23.7363L11.0696 23.7363L11.0696 23.6113L12.4586 23.6113L12.4586 23.7363L12.3336 23.7363L12.3336 1.6897L12.5418 1.87549Q13.3393 2.5874 14.1816 3.89111Q15.2151 5.49097 16.0195 7.56531Q16.9863 10.0585 17.519 12.9927Q18.1391 16.4081 18.1391 20.2639Q18.1391 25.2146 17.2064 30.1741L17.1516 30.4653L16.9812 30.2229Q16.2771 29.2206 15.2213 28.272Q13.8801 27.0668 12.0477 26.0199Q9.7757 24.7216 8.24469 23.0261Q7.0098 21.6586 6.3078 20.0931Q5.79849 18.9573 5.61142 17.8228Q5.51288 17.2251 5.52301 16.8127L5.64798 16.8158L5.64798 16.9408L5.51105 16.9408L5.52161 16.806Q5.76291 13.7233 6.43796 10.9872Q7.02225 8.61902 7.90689 6.60278Q8.65222 4.90405 9.54837 3.58813Q10.2921 2.49597 10.9864 1.87561L11.1946 1.68945L11.1946 1.96887ZM10.9446 1.96887L11.0696 1.96887L11.153 2.06201Q10.4815 2.66199 9.755 3.72876Q8.87186 5.02563 8.1358 6.70325Q7.25983 8.69971 6.68066 11.0471Q6.01056 13.7633 5.77084 16.8256L5.64624 16.8158L5.64624 16.6908L5.77606 16.6908L5.77292 16.8188Q5.76337 17.2076 5.85806 17.7821Q6.03989 18.8846 6.53592 19.9908Q7.22177 21.5204 8.43024 22.8585Q9.93445 24.5243 12.1718 25.8029Q14.0273 26.8629 15.3885 28.0861Q16.4653 29.0537 17.1858 30.0791L17.0835 30.151L16.9607 30.1279Q17.8891 25.1913 17.8891 20.2639Q17.8891 16.4305 17.273 13.0374Q16.7446 10.1266 15.7864 7.65576Q14.9913 5.60522 13.9716 4.02686Q13.5455 3.36731 13.1113 2.84155Q12.726 2.37512 12.3753 2.06201L12.4586 1.96875L12.5836 1.96875L12.5836 23.8613L10.9446 23.8613L10.9446 1.96887ZM5.647 21.3197Q6.47296 22.8545 7.76749 24.1827Q9.31522 25.7709 11.4823 27.0096Q13.0223 27.8898 14.1905 28.8856Q15.131 29.6873 15.7912 30.5288Q16.2688 31.1376 16.558 31.7103Q16.7064 32.0043 16.7655 32.1995Q16.7657 32.1998 16.7657 32.2L16.7754 32.2318L16.7679 32.2643Q16.2905 34.3494 15.6785 36.2964L15.5921 36.5714L15.4504 36.3204Q14.9517 35.4368 14.2138 34.6656Q13.2997 33.7104 12.0578 32.9705Q10.1393 31.8282 8.72232 30.3051Q7.55298 29.0482 6.76443 27.5764Q6.1633 26.4545 5.82098 25.2832Q5.60504 24.5443 5.52579 23.9207L5.52536 23.9172L5.52509 23.9138Q5.44272 22.7651 5.41196 21.3817L5.647 21.3197ZM5.42685 21.4381L5.53693 21.3789L5.6619 21.3761Q5.6925 22.7534 5.77448 23.896L5.64978 23.9049L5.77377 23.8892Q5.85056 24.4932 6.06094 25.213Q6.39597 26.3594 6.9848 27.4584Q7.75806 28.9016 8.90536 30.1348Q10.298 31.6317 12.1858 32.7557Q13.4568 33.5131 14.3944 34.4928Q15.154 35.2866 15.6682 36.1975L15.5593 36.2589L15.44 36.2214Q16.049 34.2839 16.5242 32.2085L16.6461 32.2363L16.5265 32.2727Q16.5263 32.2722 16.5263 32.272Q16.4734 32.0975 16.3348 31.823Q16.0568 31.2725 15.5945 30.6831Q14.9498 29.8613 14.0284 29.0759Q12.8779 28.0953 11.3583 27.2267Q9.16068 25.9706 7.58844 24.3573Q6.26941 23.0038 5.42685 21.4381ZM12.4585 41.6669L13.4185 41.6669L13.4185 41.7919L13.3098 41.8535L13.2773 41.7961L13.3059 41.7371Q14.0441 40.2142 14.7714 38.2073L14.8889 38.2499L14.7672 38.2783Q14.6953 37.9716 14.5515 37.6239Q14.3377 37.1071 14.0049 36.6067Q13.0569 35.1816 11.3458 34.1628Q8.09259 32.2239 6.18018 29.2976L6.28482 29.2292L6.40805 29.2081Q7.13977 33.495 8.50748 37.4851Q8.99164 38.8976 9.52353 40.1742Q9.88782 41.0487 10.222 41.7373L10.1095 41.7919L10.1095 41.6669L11.0696 41.6669L11.0696 41.7919L10.9446 41.7919L10.9446 36.8055L12.5835 36.8055L12.5835 41.7919L12.4585 41.7919L12.4585 41.6669ZM12.3335 41.9169L12.3335 36.9305L12.4585 36.9305L12.4585 37.0555L11.0696 37.0555L11.0696 36.9305L11.1946 36.9305L11.1946 41.9169L10.0312 41.9169L9.99704 41.8464Q9.65979 41.1514 9.29276 40.2704Q8.75775 38.9862 8.27097 37.5662Q6.89673 33.5569 6.16162 29.2502L6.38947 29.1608Q8.27023 32.0388 11.4737 33.948Q13.2336 34.9958 14.213 36.4681Q14.5594 36.989 14.7825 37.5284Q14.9341 37.8948 15.0106 38.2213L15.019 38.2576L15.0064 38.2925Q14.2747 40.3115 13.5309 41.8461L13.4184 41.7915L13.5271 41.7299L13.6331 41.9169L12.4585 41.9169L12.3335 41.9169Z" fill="#000000" fill-opacity="1.000000" fill-rule="nonzero"/>
	</g>
</svg>
