<svg width="294.182007" height="349.826172" viewBox="0 0 294.182 349.826" fill="none" xmlns="http://www.w3.org/2000/svg" xmlns:xlink="http://www.w3.org/1999/xlink">
	<desc>
			Created with Pixso.
	</desc>
	<defs/>
	<g opacity="0.030000" style="mix-blend-mode:normal">
		<path id="Shape" d="M238.517 31.7494C212.936 11.2745 180.492 0 147.077 0C113.662 0 81.1838 11.2745 55.6367 31.7494C22.2553 58.4807 2.56757 96.4866 0.224121 138.74C-2.08612 180.426 13.5502 221.275 43.0813 250.783L139.373 346.999C143.156 350.746 149.718 350.78 153.502 347.032L251.173 250.714C280.638 221.273 296.24 180.457 293.964 138.739C291.586 96.484 271.932 58.4781 238.517 31.7485L238.517 31.7494ZM81.4521 146.874C81.4521 183.04 110.882 212.448 147.077 212.448C183.27 212.448 212.735 183.041 212.701 146.874C212.701 110.709 183.271 81.3013 147.077 81.3013C110.883 81.3013 81.4521 110.708 81.4521 146.874Z" clip-rule="evenodd" fill="#FFFFFF" fill-opacity="1.000000" fill-rule="evenodd"/>
		<path id="Shape" d="M147.07 114.91C129.43 114.91 115.1 129.23 115.1 146.86C115.1 164.49 129.43 178.81 147.07 178.81C164.72 178.81 179.05 164.49 179.05 146.86C179.05 129.23 164.72 114.91 147.07 114.91Z" fill="#FFFFFF" fill-opacity="1.000000" fill-rule="nonzero"/>
	</g>
</svg>
