<svg width="18.658264" height="24.309326" viewBox="0 0 18.6583 24.3093" fill="none" xmlns="http://www.w3.org/2000/svg" xmlns:xlink="http://www.w3.org/1999/xlink">
	<desc>
			Created with Pixso.
	</desc>
	<defs/>
	<path id="Shape" d="M5.07 15.65C3.58 15.65 2.37 14.44 2.37 12.95C2.37 12.64 2.63 12.38 2.95 12.38C3.26 12.38 3.52 12.64 3.52 12.95C3.52 13.81 4.22 14.51 5.07 14.51C5.93 14.51 6.63 13.81 6.63 12.95C6.63 12.64 6.88 12.38 7.2 12.38C7.52 12.38 7.77 12.64 7.77 12.95C7.77 14.44 6.56 15.65 5.07 15.65Z" fill="#4AF6CD" fill-opacity="1.000000" fill-rule="nonzero"/>
	<path id="Shape" d="M2.37 12.95C2.37 12.64 2.63 12.38 2.95 12.38C3.26 12.38 3.52 12.64 3.52 12.95C3.52 13.81 4.22 14.51 5.07 14.51C5.93 14.51 6.63 13.81 6.63 12.95C6.63 12.64 6.88 12.38 7.2 12.38C7.52 12.38 7.77 12.64 7.77 12.95C7.77 14.44 6.56 15.65 5.07 15.65C3.58 15.65 2.37 14.44 2.37 12.95Z" stroke="#4AF6CD" stroke-opacity="1.000000" stroke-width="0.500000"/>
	<path id="Shape" d="M9.32 15.65C7.83 15.65 6.62 14.44 6.62 12.95C6.62 12.64 6.88 12.38 7.2 12.38C7.51 12.38 7.77 12.64 7.77 12.95C7.77 13.81 8.47 14.51 9.32 14.51C10.18 14.51 10.88 13.81 10.88 12.95C10.88 12.64 11.14 12.38 11.45 12.38C11.77 12.38 12.03 12.64 12.03 12.95C12.02 14.44 10.81 15.65 9.32 15.65Z" fill="#4AF6CD" fill-opacity="1.000000" fill-rule="nonzero"/>
	<path id="Shape" d="M6.62 12.95C6.62 12.64 6.88 12.38 7.2 12.38C7.51 12.38 7.77 12.64 7.77 12.95C7.77 13.81 8.47 14.51 9.32 14.51C10.18 14.51 10.88 13.81 10.88 12.95C10.88 12.64 11.14 12.38 11.45 12.38C11.77 12.38 12.03 12.64 12.03 12.95C12.02 14.44 10.81 15.65 9.32 15.65C7.83 15.65 6.62 14.44 6.62 12.95Z" stroke="#4AF6CD" stroke-opacity="1.000000" stroke-width="0.500000"/>
	<path id="Shape" d="M13.58 15.65C12.09 15.65 10.88 14.44 10.88 12.95C10.88 12.64 11.13 12.38 11.45 12.38C11.77 12.38 12.02 12.64 12.02 12.95C12.02 13.81 12.72 14.51 13.58 14.51C14.43 14.51 15.13 13.81 15.13 12.95C15.13 12.64 15.39 12.38 15.7 12.38C16.02 12.38 16.28 12.64 16.28 12.95C16.27 14.44 15.06 15.65 13.58 15.65Z" fill="#4AF6CD" fill-opacity="1.000000" fill-rule="nonzero"/>
	<path id="Shape" d="M10.88 12.95C10.88 12.64 11.13 12.38 11.45 12.38C11.77 12.38 12.02 12.64 12.02 12.95C12.02 13.81 12.72 14.51 13.58 14.51C14.43 14.51 15.13 13.81 15.13 12.95C15.13 12.64 15.39 12.38 15.7 12.38C16.02 12.38 16.28 12.64 16.28 12.95C16.27 14.44 15.06 15.65 13.58 15.65C12.09 15.65 10.88 14.44 10.88 12.95Z" stroke="#4AF6CD" stroke-opacity="1.000000" stroke-width="0.500000"/>
	<mask id="mask_0_2799" fill="white">
		<path id="Shape" d="M9.328 24.0593C4.32202 24.0593 0.25 19.9871 0.25 14.9812C0.25 7.50488 8.61151 0.664795 8.96899 0.377686C9.18579 0.201904 9.50024 0.207764 9.70923 0.393311C10.0647 0.707764 18.4083 8.14941 18.4083 14.9814C18.4063 19.9875 14.334 24.0593 9.32825 24.0593L9.328 24.0593ZM9.31213 1.59033L9.31238 1.59009L9.31189 1.59009L9.31213 1.59033ZM9.31213 1.59033C7.69257 3.01074 1.39636 8.91455 1.39636 14.9807C1.39636 19.3538 4.95306 22.9102 9.32587 22.9102C13.6987 22.9102 17.2554 19.3535 17.2554 14.9807C17.2573 9.43799 10.918 3.10425 9.31213 1.59033Z" clip-rule="evenodd" fill="" fill-opacity="1.000000" fill-rule="evenodd"/>
	</mask>
	<path id="Shape" d="M9.328 24.0593C4.32202 24.0593 0.25 19.9871 0.25 14.9812C0.25 7.50488 8.61151 0.664795 8.96899 0.377686C9.18579 0.201904 9.50024 0.207764 9.70923 0.393311C10.0647 0.707764 18.4083 8.14941 18.4083 14.9814C18.4063 19.9875 14.334 24.0593 9.32825 24.0593L9.328 24.0593ZM9.31213 1.59033L9.31238 1.59009L9.31189 1.59009L9.31213 1.59033ZM9.31213 1.59033C7.69257 3.01074 1.39636 8.91455 1.39636 14.9807C1.39636 19.3538 4.95306 22.9102 9.32587 22.9102C13.6987 22.9102 17.2554 19.3535 17.2554 14.9807C17.2573 9.43799 10.918 3.10425 9.31213 1.59033Z" clip-rule="evenodd" fill="#4AF6CD" fill-opacity="1.000000" fill-rule="evenodd" mask="url(#mask_0_2799)"/>
	<path id="Shape" d="M9.328 24.3093Q7.43335 24.3093 5.70013 23.575Q4.02673 22.866 2.73499 21.5742Q1.44324 20.2825 0.734253 18.6091Q0 16.876 0 14.9812Q0 12.3508 1.33539 9.48022Q2.40436 7.18237 4.27991 4.82764Q5.63635 3.12476 7.28296 1.54858Q7.8175 1.03711 8.32745 0.592529Q8.62305 0.334961 8.8125 0.182861Q9.04535 -0.00585938 9.34717 0.000244141Q9.64978 0.00634766 9.87524 0.206543Q10.5305 0.786133 11.3969 1.66968Q13.0384 3.34351 14.3898 5.09033Q16.2593 7.50708 17.325 9.75708Q18.6583 12.5723 18.6583 14.9814Q18.6575 16.8762 17.9228 18.6094Q17.2134 20.2827 15.9214 21.5745Q14.6295 22.8662 12.9561 23.5752Q11.2228 24.3093 9.32825 24.3093L9.26886 24.3093L9.21552 24.2825L9.328 24.0593L9.328 24.3093ZM9.38739 23.8093L9.44073 23.8362L9.32825 24.0593L9.32825 23.8093Q11.1213 23.8093 12.761 23.1147Q14.3448 22.4438 15.5679 21.2209Q16.791 19.998 17.4625 18.4143Q18.1575 16.7744 18.1583 14.9814Q18.1583 12.6846 16.873 9.97095Q15.8306 7.77002 13.9943 5.39624Q12.6609 3.67261 11.0399 2.01978Q10.1859 1.14893 9.54327 0.580322Q9.45551 0.502441 9.33698 0.5Q9.21814 0.497559 9.12549 0.572754Q8.94397 0.718506 8.65601 0.969482Q8.15479 1.40625 7.62872 1.90991Q6.00647 3.46265 4.67096 5.13916Q2.83258 7.44727 1.78876 9.69116Q0.5 12.4614 0.5 14.9812Q0.5 16.7744 1.19464 18.4141Q1.8656 19.9978 3.0885 21.2207Q4.3114 22.4436 5.8952 23.1145Q7.53485 23.8093 9.328 23.8093L9.38739 23.8093ZM9.14746 1.40234L9.14771 1.4021L9.31238 1.59009L9.31238 1.84009L9.31189 1.84009L9.31189 1.59009L9.48328 1.4082L10.0411 1.93335L8.72821 1.76929L9.14746 1.40234ZM9.47681 1.77856L9.31213 1.59033L9.34314 1.34229L9.34314 1.34229L9.31213 1.59033L9.14075 1.77246L8.68176 1.34009L9.97748 1.34009L9.47681 1.77856ZM9.47699 1.77832Q8.53235 2.60669 7.57196 3.60229Q6.09906 5.12915 4.94824 6.69165Q3.46136 8.71021 2.63507 10.6279Q1.64636 12.9226 1.64636 14.9807Q1.64636 16.5408 2.25061 17.967Q2.83429 19.3447 3.89807 20.4084Q4.96191 21.4724 6.3396 22.0559Q7.76599 22.6602 9.32587 22.6602Q10.8858 22.6602 12.3121 22.0559Q13.6899 21.4722 14.7537 20.4084Q15.8175 19.3447 16.4011 17.967Q17.0054 16.5405 17.0054 14.9807Q17.006 13.1062 16.0123 10.8643Q15.1807 8.98804 13.6842 6.92139Q12.5266 5.32251 11.0469 3.71094Q10.0804 2.6582 9.14062 1.77222L9.31213 1.59033L9.47699 1.77832ZM9.14728 1.40234L9.31824 1.25244L9.48364 1.40845Q10.4365 2.30688 11.4152 3.3728Q12.9145 5.00586 14.0892 6.62817Q15.6166 8.7373 16.4695 10.6616Q17.5061 13.0005 17.5054 14.9807Q17.5054 16.6421 16.8615 18.1619Q16.2399 19.6294 15.1072 20.762Q13.9745 21.8948 12.5072 22.5164Q10.9874 23.1602 9.32587 23.1602Q7.66443 23.1602 6.14459 22.5164Q4.67719 21.8948 3.54456 20.7622Q2.41187 19.6294 1.79022 18.1621Q1.14636 16.6421 1.14636 14.9807Q1.14636 12.8196 2.1759 10.4302Q3.02478 8.45972 4.54565 6.39502Q5.71613 4.80591 7.2121 3.25513Q8.18701 2.24463 9.14728 1.40234Z" fill="#4AF6CD" fill-opacity="1.000000" fill-rule="nonzero"/>
</svg>
